<svg xmlns="http://www.w3.org/2000/svg" width="639" height="899" viewBox="0 0 639 899"><defs><linearGradient id="a" x1=".875" y1="768.047" x2="637.969" y2="130.953" gradientUnits="userSpaceOnUse"><stop offset=".205" stop-color="#1ed94f"/><stop offset=".5" stop-color="#f2f047"/><stop offset=".795" stop-color="#1ed94f"/></linearGradient></defs><path d="M293 0c7.6 3.338 9.286 12.771 14 19 10.557 13.95 28.386 28.475 45 36 52.564 23.809 124.764 22.194 167 55 14.97 11.628 27.68 30.919 35 50 3.368 8.779 2.709 21.187 9 27 37.372 34.534 94.874 60.234 59 133l-5-1c-10.565-29.835-46.74-43.388-77-54-102.653-36-270.938-23.643-359 15-27.787 12.193-85.235 49.973-73 95h1l44-21c28.171-12.008 60.1-20.233 93-27 126.731-26.062 264 26.052 333 79 41.914 32.164 76.849 87.685 49 156-5.183 12.713-9.311 27.8-19 36h-1c2.427-17.368 11.942-34.5 8-58-7.258-43.266-45.8-91.644-86-100 4.139 12.436 19.25 18.722 27 28 18.942 22.676 34.082 44.807 40 81 6.252 38.236-24.082 76.168-43 92l-18 15-12 51c-14.379 36.653-68.773 116.151-106 125l19-20 22-27c18.082-25.507 30.617-54.834 36-93l-2-1-2 1c-25.678 87.051-97.249 132.3-169 174-20.378 11.844-47 29.027-73 33l3-4 34-20c58.03-34.919 118.451-74.8 154-132 14.1-22.687 26.607-64.032 9-93-9.53-15.679-27.455-29.486-45-37-37.2-15.93-121.924-18.888-132 23-3.7 15.394 5.979 23.688 13 29 23.185 17.541 55.157 20.079 97 20l45-2-1 2c-71.944 23.6-175.238 51.744-227-15-13.534-17.451-24.769-47.248-13-76 30.295-74.011 147.809-105.926 248-75 56.02 17.292 88.406 51.413 101 113l5-1 13-35c16.032-83.754-83.289-125.721-139-143-30.552-9.476-76.256-22.336-120-15-58 9.726-106.242 20.3-148 45-26.929 15.932-88.194 49.795-76 101 7.18 30.152 32.486 38.03 49 58v1C57.085 635.837-23.646 559.168 8 481c9.89-24.427 28.717-50.474 48-66l30-25c-1.716-23.064-12.378-47.327-6-75 5.564-24.143 22.225-42.306 26-64l-4 2c-24.1 10.971-40.847 47.9-46 78v44l-2-1c-5.33-16.634-12.321-33.625-16-53-23.649-124.534 96.069-195.3 185-218 30.4-7.76 65.52-5.146 98-14v-4c-17.387-19.037-29.646-50.537-28-85Zm198.9 136.594c13.943 3.431 23.053 15.126 20.348 26.119s-16.2 17.125-30.146 13.693-23.053-15.126-20.348-26.119 16.202-17.125 30.146-13.693Z" fill-rule="evenodd" fill="url(#a)"/></svg>